<?xml version="1.0" standalone="no"?>
<!DOCTYPE svg PUBLIC "-//W3C//DTD SVG 20010904//EN"
 "http://www.w3.org/TR/2001/REC-SVG-20010904/DTD/svg10.dtd">
<svg version="1.0" xmlns="http://www.w3.org/2000/svg"
 width="3262.000000pt" height="3262.000000pt" viewBox="0 0 3262.000000 3262.000000"
 preserveAspectRatio="xMidYMid meet">
<metadata>
Created by potrace 1.14, written by Peter Selinger 2001-2017
</metadata>
<g transform="translate(0.000000,3262.000000) scale(0.100000,-0.100000)"
fill="#000000" stroke="none">
<path d="M16226 28223 c-244 -1552 -373 -3422 -352 -5093 4 -283 9 -543 13
-577 l6 -62 196 -122 c833 -518 1583 -1079 2307 -1726 l172 -153 78 20 c210
54 407 -4 621 -184 l97 -82 1828 -2664 c1006 -1466 1887 -2751 1959 -2857 196
-290 292 -405 450 -538 87 -73 206 -157 283 -201 l38 -22 98 197 c230 460 509
838 918 1244 l139 139 -14 86 c-95 616 -287 1256 -569 1897 -136 310 -365 740
-710 1337 -1585 2736 -3657 5495 -5999 7987 -480 511 -1139 1176 -1496 1509
l-36 33 -27 -168z"/>
<path d="M12140 27008 c0 -666 62 -1630 161 -2498 16 -146 34 -294 39 -330 5
-36 10 -68 10 -72 0 -3 57 -25 128 -49 768 -254 1553 -582 2332 -975 276 -139
731 -384 848 -456 l33 -21 -6 524 c-8 586 15 1766 39 1992 l4 37 -341 229
c-838 560 -1656 1054 -2507 1513 -217 117 -723 378 -733 378 -4 0 -7 -123 -7
-272z"/>
<path d="M8025 24728 c2 -7 35 -116 74 -243 397 -1302 1077 -2920 1818 -4329
1185 -2253 2612 -4281 4283 -6091 194 -209 619 -651 762 -792 l83 -82 1603
-456 c882 -250 1635 -462 1673 -470 86 -18 130 -19 152 -2 15 11 15 14 0 45
-9 18 -36 51 -62 73 -25 22 -902 660 -1950 1417 -2000 1446 -2011 1454 -2090
1585 -65 110 -85 172 -89 288 -7 193 38 302 192 455 91 89 180 141 296 170
134 34 326 2 495 -83 38 -20 918 -567 1955 -1216 1037 -650 1939 -1209 2006
-1243 134 -68 188 -84 211 -61 18 18 10 36 -56 122 -81 106 -166 199 -1890
2079 -933 1017 -1716 1877 -1741 1911 -215 293 -160 615 160 936 196 196 407
274 605 224 86 -22 211 -86 276 -142 31 -26 832 -802 1780 -1724 948 -922
1760 -1708 1804 -1748 160 -144 329 -261 378 -261 55 0 -24 198 -203 510 -40
69 -577 964 -1193 1990 -991 1649 -1125 1876 -1154 1962 -45 128 -63 229 -63
345 0 179 53 306 178 425 l76 71 -35 31 c-19 17 -107 94 -195 171 -1535 1350
-3308 2398 -5284 3123 -1451 532 -3086 897 -4470 996 -387 28 -390 28 -385 14z"/>
<path d="M29571 19414 c-1303 -129 -2706 -800 -3941 -1886 -187 -164 -490
-453 -603 -574 l-76 -80 45 -140 c90 -278 189 -680 230 -934 9 -58 18 -107 20
-108 1 -2 43 30 93 72 204 170 580 442 721 521 457 259 887 255 1292 -12 114
-75 158 -151 144 -245 -12 -72 -45 -120 -198 -285 -412 -443 -670 -813 -913
-1308 -125 -255 -182 -392 -260 -630 -120 -363 -215 -815 -215 -1026 0 -379
-120 -1064 -255 -1458 -14 -41 -23 -76 -21 -78 7 -7 137 180 385 552 1157
1735 2315 3950 3311 6330 177 423 520 1281 520 1301 0 8 -147 1 -279 -12z"/>
<path d="M7445 19243 c-322 -9 -749 -26 -985 -38 -459 -25 -1047 -69 -1057
-79 -11 -10 298 -451 560 -801 501 -667 1126 -1408 1714 -2028 l84 -89 167 41
c1262 304 2438 477 3680 539 l142 7 -53 75 c-423 598 -1035 1560 -1402 2206
l-69 121 -116 7 c-640 35 -1101 46 -1875 44 -385 -1 -740 -3 -790 -5z"/>
<path d="M11645 16599 c-2338 -95 -5047 -749 -7668 -1853 -483 -204 -1070
-473 -1061 -487 8 -13 487 -331 683 -453 1577 -981 3484 -1898 5571 -2678
3364 -1258 7173 -2139 11095 -2568 204 -22 387 -42 408 -45 20 -3 37 -3 37 0
0 8 -1963 2147 -1982 2160 -146 101 -129 94 -1960 806 -1629 633 -1810 705
-1884 755 -142 94 -250 232 -307 390 -61 171 -76 345 -39 456 26 74 83 148
131 168 l31 12 -108 113 c-59 62 -192 202 -296 311 -803 844 -1607 1811 -2338
2818 -52 70 -84 105 -95 104 -10 0 -108 -5 -218 -9z"/>
<path d="M9280 7099 l-1 -554 -21 30 c-43 61 -206 211 -268 248 -135 78 -295
112 -495 104 -149 -6 -225 -23 -341 -77 -112 -52 -192 -108 -280 -198 -249
-252 -374 -620 -374 -1094 0 -382 80 -693 240 -929 152 -223 392 -354 737
-400 129 -17 413 -6 538 21 196 42 411 129 555 225 185 123 304 325 357 606
17 86 18 183 18 1204 l0 1110 -23 47 c-37 74 -96 134 -170 170 l-67 33 -202 4
-203 3 0 -553z m-459 -773 c206 -37 345 -175 413 -409 83 -285 42 -707 -87
-909 -93 -146 -272 -229 -457 -213 -198 17 -333 110 -420 290 -124 255 -129
703 -10 947 83 170 213 273 375 298 75 11 103 11 186 -4z"/>
<path d="M28370 7100 l0 -553 -32 44 c-82 114 -227 229 -349 278 -119 48 -231
64 -394 58 -112 -4 -158 -10 -230 -32 -499 -147 -806 -717 -771 -1430 20 -399
120 -701 302 -920 131 -156 357 -266 641 -311 145 -22 434 -15 573 15 168 36
336 100 486 185 151 86 243 180 318 326 77 150 110 283 126 507 13 184 13
2023 0 2093 -15 77 -47 134 -107 191 -91 86 -115 92 -355 97 l-208 4 0 -552z
m-384 -791 c201 -62 327 -239 369 -517 27 -178 17 -403 -25 -569 -85 -331
-330 -486 -650 -411 -212 50 -355 252 -400 563 -15 105 -12 330 5 430 45 255
167 431 345 499 104 39 239 41 356 5z"/>
<path d="M5435 7628 c-3 -7 -4 -767 -3 -1688 l3 -1675 348 -3 347 -2 -2 1567
-3 1568 -24 48 c-48 97 -141 166 -250 187 -81 15 -410 13 -416 -2z"/>
<path d="M6570 7366 l0 -276 346 0 345 0 -3 153 c-3 135 -6 157 -26 200 -33
66 -102 134 -170 165 -55 26 -63 27 -274 30 l-218 4 0 -276z"/>
<path d="M14717 7633 c-4 -3 -7 -127 -7 -275 l0 -268 351 0 351 0 -4 148 c-4
170 -17 210 -92 290 -52 55 -111 88 -186 102 -58 11 -403 14 -413 3z"/>
<path d="M29490 7366 l0 -276 346 0 346 0 -4 148 c-4 181 -20 224 -109 306
-87 81 -115 88 -366 94 l-213 4 0 -276z"/>
<path d="M915 6923 c-438 -57 -718 -260 -825 -598 -31 -98 -39 -294 -16 -397
56 -250 233 -411 584 -532 131 -45 365 -108 507 -136 364 -72 505 -181 439
-338 -47 -114 -191 -175 -409 -175 -234 1 -395 69 -470 197 -21 37 -30 64 -50
159 l-5 27 -337 0 -336 0 6 -107 c8 -127 32 -227 80 -326 127 -267 383 -420
779 -468 130 -15 523 -7 643 15 412 72 661 255 765 562 30 91 34 112 38 249 6
214 -23 320 -121 451 -55 73 -129 126 -268 194 -111 55 -366 141 -470 160 -35
7 -145 32 -244 57 -360 90 -474 158 -461 275 15 139 125 198 368 198 123 0
198 -15 276 -54 45 -23 88 -64 175 -169 22 -28 60 -57 95 -74 l57 -28 249 -3
c136 -2 252 0 257 5 14 14 -18 193 -50 283 -119 325 -398 517 -831 570 -79 9
-359 12 -425 3z"/>
<path d="M3575 6916 c-127 -21 -203 -44 -304 -92 -252 -118 -439 -327 -535
-594 -133 -369 -141 -846 -20 -1250 120 -399 394 -638 844 -736 101 -22 345
-30 451 -15 118 17 294 64 373 100 355 161 583 527 637 1023 15 134 6 455 -15
571 -101 539 -399 877 -866 982 -101 23 -452 30 -565 11z m397 -586 c126 -39
231 -136 298 -275 66 -139 97 -329 86 -530 -18 -299 -71 -462 -198 -600 -85
-92 -174 -136 -295 -142 -104 -6 -170 9 -275 64 -84 44 -141 105 -183 196 -68
146 -99 328 -99 577 -1 179 14 276 60 397 33 90 107 197 159 233 134 92 308
123 447 80z"/>
<path d="M11117 6915 c-281 -46 -486 -157 -623 -338 -75 -99 -112 -187 -148
-349 l-6 -28 332 0 333 0 29 45 c76 121 318 170 564 116 110 -24 167 -53 199
-100 63 -94 31 -200 -81 -266 -56 -32 -194 -71 -318 -89 -423 -60 -551 -92
-725 -180 -210 -105 -308 -216 -365 -413 -20 -69 -23 -100 -23 -273 0 -159 3
-208 19 -265 41 -154 119 -278 227 -360 81 -61 240 -137 349 -167 79 -21 103
-23 340 -22 176 1 289 6 365 17 513 74 823 368 885 840 7 54 10 286 8 677 -4
523 -6 601 -21 643 -96 277 -312 432 -697 502 -132 24 -521 30 -643 10z m709
-1712 c-31 -179 -128 -315 -276 -386 -96 -45 -171 -60 -295 -60 -120 1 -196
25 -252 81 -57 57 -77 112 -78 217 0 81 3 97 31 156 53 111 135 153 429 219
154 35 342 90 420 124 l30 13 3 -140 c2 -90 -3 -170 -12 -224z"/>
<path d="M16486 6915 c-49 -8 -122 -24 -163 -35 -321 -88 -551 -331 -607 -642
l-7 -38 333 0 333 1 25 40 c48 78 148 126 291 138 143 12 340 -18 421 -66 99
-57 113 -202 27 -280 -61 -55 -199 -102 -374 -127 -419 -60 -548 -92 -717
-177 -159 -80 -238 -146 -303 -254 -131 -218 -135 -626 -9 -865 48 -92 112
-161 207 -224 99 -66 173 -99 292 -133 165 -46 569 -42 820 8 409 83 680 338
771 729 15 66 18 148 21 684 4 530 2 619 -12 681 -65 293 -302 477 -705 550
-133 24 -522 30 -644 10z m721 -1527 c-4 -116 -11 -203 -21 -238 -70 -252
-267 -392 -551 -393 -165 -1 -260 44 -310 148 -39 78 -44 170 -17 262 43 139
124 190 405 253 209 48 327 81 422 120 38 16 72 29 74 29 2 1 1 -81 -2 -181z"/>
<path d="M20527 6910 c-188 -34 -397 -116 -552 -215 -155 -99 -254 -245 -310
-458 -49 -185 -50 -216 -50 -1122 l0 -850 347 -3 347 -2 3 902 3 903 23 56
c89 221 389 319 629 205 138 -66 211 -164 233 -312 6 -42 10 -404 10 -911 l0
-843 340 0 339 0 3 898 3 897 22 55 c33 81 76 134 146 180 87 57 171 81 282
81 207 0 376 -107 432 -274 16 -47 18 -127 23 -822 l5 -770 24 -53 c29 -65
113 -144 178 -167 37 -13 95 -18 261 -22 l213 -6 -4 904 c-3 891 -3 905 -25
1001 -79 346 -215 513 -531 649 -205 88 -402 125 -626 116 -282 -11 -536 -85
-685 -199 l-44 -35 -65 44 c-186 128 -384 181 -696 189 -139 3 -190 0 -278
-16z"/>
<path d="M24820 6916 c-110 -20 -189 -42 -268 -76 -372 -158 -606 -507 -662
-990 -17 -142 -8 -514 14 -635 37 -204 110 -393 206 -536 64 -95 221 -245 318
-303 98 -58 225 -108 342 -133 123 -26 478 -26 600 1 366 80 638 285 784 591
32 66 86 216 86 237 0 6 -106 9 -292 6 -358 -4 -364 -6 -474 -145 -36 -44
-120 -93 -209 -119 -88 -26 -248 -25 -340 4 -194 59 -316 238 -340 496 l-7 76
845 0 c761 0 845 2 851 16 9 25 7 248 -4 369 -32 349 -139 624 -319 818 -139
150 -339 258 -566 307 -128 28 -449 37 -565 16z m399 -577 c120 -26 223 -109
278 -224 33 -71 63 -183 63 -242 l0 -33 -490 0 -490 0 0 28 c0 15 7 58 15 96
62 294 310 443 624 375z"/>
<path d="M31250 6914 c-52 -8 -143 -31 -202 -51 -288 -95 -496 -318 -551 -588
l-14 -70 331 -3 c303 -2 332 -1 341 14 23 40 81 97 117 115 167 85 550 56 651
-49 33 -35 52 -106 43 -157 -11 -55 -84 -125 -162 -155 -103 -38 -274 -72
-515 -101 -109 -13 -296 -62 -389 -102 -286 -124 -411 -261 -462 -504 -27
-132 -21 -389 11 -500 63 -216 162 -332 376 -438 157 -78 240 -96 460 -102
324 -9 587 29 778 112 123 53 185 94 273 180 124 123 194 237 238 387 44 153
48 223 44 858 l-3 595 -25 70 c-13 39 -47 104 -75 145 -119 175 -311 280 -615
335 -135 24 -520 30 -650 9z m727 -1549 c-4 -139 -9 -183 -27 -240 -74 -235
-263 -365 -535 -368 -171 -3 -262 40 -314 145 -43 88 -50 165 -23 254 30 95
53 128 114 164 81 46 148 68 333 110 154 34 342 90 420 124 39 17 39 20 32
-189z"/>
<path d="M6570 5565 l0 -1305 345 0 345 0 -2 1188 -3 1187 -27 51 c-35 66
-124 147 -184 168 -38 13 -91 16 -261 16 l-213 0 0 -1305z"/>
<path d="M14000 6863 c-84 -9 -262 -47 -350 -75 -192 -61 -345 -154 -473 -287
-171 -178 -275 -406 -312 -688 -12 -92 -15 -252 -15 -834 l0 -719 345 0 344 0
3 753 c3 681 5 758 21 811 51 173 138 264 302 316 59 19 99 23 263 28 l192 4
0 349 0 349 -142 -2 c-79 0 -159 -3 -178 -5z"/>
<path d="M14712 5568 l3 -1303 348 -3 347 -2 0 1157 c0 1289 3 1223 -69 1319
-41 55 -114 108 -169 124 -20 5 -133 10 -250 10 l-212 0 2 -1302z"/>
<path d="M29490 5566 l0 -1306 345 0 345 0 -2 1183 -3 1182 -28 56 c-30 63
-92 125 -159 161 -41 22 -55 23 -270 26 l-228 3 0 -1305z"/>
</g>
</svg>
