<?xml version="1.0" standalone="no"?>
<!DOCTYPE svg PUBLIC "-//W3C//DTD SVG 20010904//EN"
 "http://www.w3.org/TR/2001/REC-SVG-20010904/DTD/svg10.dtd">
<svg version="1.0" xmlns="http://www.w3.org/2000/svg"
 width="3004.000000pt" height="3004.000000pt" viewBox="0 0 3004.000000 3004.000000"
 preserveAspectRatio="xMidYMid meet">
<metadata>
Created by potrace 1.14, written by Peter Selinger 2001-2017
</metadata>
<g transform="translate(0.000000,3004.000000) scale(0.100000,-0.100000)"
fill="#000000" stroke="none">
<path d="M14936 26933 c-244 -1552 -373 -3422 -352 -5093 4 -283 9 -543 13
-577 l6 -62 196 -122 c833 -518 1583 -1079 2307 -1726 l172 -153 78 20 c210
54 407 -4 621 -184 l97 -82 1829 -2664 c1005 -1466 1886 -2751 1958 -2857 196
-290 292 -405 450 -538 87 -73 206 -157 283 -201 l38 -22 98 197 c230 460 509
838 918 1244 l139 139 -14 86 c-95 616 -287 1256 -569 1897 -136 310 -365 740
-710 1337 -1585 2736 -3657 5495 -5999 7987 -480 511 -1139 1176 -1496 1509
l-36 33 -27 -168z"/>
<path d="M10850 25718 c0 -666 62 -1630 161 -2498 16 -146 34 -294 39 -330 5
-36 10 -68 10 -72 0 -3 57 -25 128 -49 768 -254 1553 -582 2332 -975 276 -139
731 -384 848 -456 l33 -21 -6 524 c-8 586 15 1766 39 1992 l4 37 -341 229
c-838 560 -1656 1054 -2507 1513 -217 117 -723 378 -733 378 -4 0 -7 -123 -7
-272z"/>
<path d="M6735 23438 c2 -7 35 -116 74 -243 397 -1302 1077 -2920 1818 -4329
1185 -2253 2612 -4281 4283 -6091 194 -209 619 -651 762 -792 l83 -82 1603
-456 c882 -250 1635 -462 1673 -470 86 -18 130 -19 152 -2 15 11 15 14 0 45
-9 18 -36 51 -62 73 -25 22 -902 660 -1950 1417 -2000 1446 -2011 1454 -2090
1585 -65 110 -85 172 -89 288 -7 193 38 302 192 455 91 89 180 141 296 170
134 34 326 2 495 -83 38 -20 918 -567 1955 -1216 1037 -650 1939 -1209 2006
-1243 134 -68 188 -84 211 -61 18 18 10 36 -56 122 -81 106 -166 199 -1890
2079 -933 1017 -1716 1877 -1741 1911 -215 293 -160 615 160 936 196 196 407
274 605 224 86 -22 211 -86 276 -142 31 -26 832 -802 1780 -1724 948 -922
1760 -1708 1804 -1748 160 -144 329 -261 378 -261 55 0 -24 198 -203 510 -40
69 -577 964 -1193 1990 -991 1649 -1125 1876 -1154 1962 -45 128 -63 229 -63
345 0 179 53 306 178 425 l76 71 -35 31 c-19 17 -107 94 -195 171 -1535 1350
-3308 2398 -5284 3123 -1451 532 -3086 897 -4470 996 -387 28 -390 28 -385 14z"/>
<path d="M28281 18124 c-1303 -129 -2706 -800 -3941 -1886 -187 -164 -490
-453 -603 -574 l-76 -80 45 -140 c90 -278 189 -680 230 -934 9 -58 18 -107 20
-108 1 -2 43 30 93 72 204 170 580 442 721 521 457 259 887 255 1292 -12 114
-75 158 -151 144 -245 -12 -72 -45 -120 -198 -285 -412 -443 -670 -813 -913
-1308 -125 -255 -182 -392 -260 -630 -120 -363 -215 -815 -215 -1026 0 -379
-120 -1064 -255 -1458 -14 -41 -23 -76 -21 -78 7 -7 137 180 385 552 1157
1735 2315 3950 3311 6330 177 423 520 1281 520 1301 0 8 -147 1 -279 -12z"/>
<path d="M6155 17953 c-322 -9 -749 -26 -985 -38 -459 -25 -1047 -69 -1057
-79 -11 -10 298 -451 560 -801 501 -667 1126 -1408 1714 -2028 l84 -89 167 41
c1262 304 2438 477 3680 539 l142 7 -53 75 c-423 598 -1035 1560 -1402 2206
l-69 121 -116 7 c-640 35 -1101 46 -1875 44 -385 -1 -740 -3 -790 -5z"/>
<path d="M10335 15309 c-2338 -95 -5047 -749 -7668 -1853 -483 -204 -1070
-473 -1061 -487 8 -13 487 -331 683 -453 1577 -981 3484 -1898 5571 -2678
3364 -1258 7173 -2139 11095 -2568 204 -22 387 -42 408 -45 20 -3 37 -3 37 0
0 8 -1963 2147 -1982 2160 -146 101 -129 94 -1960 806 -1629 633 -1810 705
-1884 755 -142 94 -250 232 -307 390 -61 171 -76 345 -39 456 26 74 83 148
131 168 l31 12 -108 113 c-59 62 -192 202 -296 311 -803 844 -1607 1811 -2338
2818 -52 70 -84 105 -95 104 -10 0 -108 -5 -218 -9z"/>
<path d="M6040 5804 l0 -546 -57 72 c-110 138 -257 235 -428 281 -108 30 -375
33 -475 6 -202 -55 -355 -151 -487 -306 -243 -285 -352 -685 -322 -1185 16
-272 63 -467 161 -660 53 -106 89 -157 167 -240 146 -153 351 -245 640 -287
122 -17 419 -6 543 20 186 40 404 129 547 223 201 131 319 340 368 650 16 103
18 204 18 1183 l0 1070 -27 57 c-36 77 -98 141 -171 178 l-60 30 -209 0 -208
0 0 -546z m-411 -779 c194 -51 322 -198 383 -440 20 -79 23 -116 23 -295 0
-259 -21 -371 -98 -528 -91 -183 -298 -285 -518 -254 -314 45 -479 318 -479
792 0 261 62 456 189 593 97 104 196 146 351 146 52 1 119 -6 149 -14z"/>
<path d="M21470 5805 l0 -547 -38 49 c-56 70 -181 183 -246 222 -204 122 -522
146 -775 58 -218 -76 -430 -276 -553 -522 -113 -225 -161 -461 -161 -800 0
-294 34 -498 118 -705 149 -363 396 -549 822 -616 146 -22 434 -15 575 15 186
40 420 137 559 232 195 132 321 371 359 679 8 68 10 402 8 1170 l-3 1075 -21
40 c-34 63 -97 128 -155 160 l-54 30 -217 3 -218 3 0 -546z m-414 -779 c252
-67 395 -299 411 -666 21 -504 -143 -807 -463 -851 -339 -48 -572 172 -625
586 -17 137 -7 386 21 495 55 220 209 400 376 439 60 14 223 12 280 -3z"/>
<path d="M7160 6071 l0 -271 346 0 346 0 -4 148 c-3 137 -5 151 -31 203 -30
63 -92 125 -159 161 -41 22 -55 23 -270 26 l-228 3 0 -270z"/>
<path d="M17630 4655 l0 -1685 345 0 345 0 -2 1573 -3 1572 -24 45 c-34 65
-112 135 -177 160 -49 18 -78 20 -269 20 l-215 0 0 -1685z"/>
<path d="M18760 6070 l0 -270 351 0 351 0 -4 143 c-3 130 -6 147 -31 202 -36
76 -110 147 -183 175 -49 18 -78 20 -269 20 l-215 0 0 -270z"/>
<path d="M26900 6071 l0 -271 351 0 352 0 -5 143 c-4 127 -7 148 -30 199 -32
69 -96 136 -163 169 -48 23 -59 24 -277 27 l-228 3 0 -270z"/>
<path d="M2632 5629 c-445 -60 -742 -314 -806 -686 l-6 -33 333 0 332 1 29 45
c74 118 318 167 560 114 158 -35 205 -70 227 -168 11 -46 10 -54 -12 -99 -55
-111 -164 -152 -549 -208 -354 -52 -524 -107 -710 -230 -165 -110 -247 -264
-270 -505 -25 -266 36 -509 166 -657 54 -62 183 -151 280 -192 135 -57 214
-73 402 -78 509 -16 855 81 1072 297 129 129 211 281 253 465 19 84 21 130 24
684 5 667 3 691 -64 831 -47 98 -175 228 -278 282 -98 51 -232 94 -371 119
-138 24 -491 34 -612 18z m685 -1526 c-6 -195 -18 -258 -68 -361 -35 -72 -113
-156 -181 -196 -155 -91 -394 -109 -529 -41 -118 60 -170 224 -119 376 27 79
44 104 96 140 64 44 159 76 334 115 162 35 346 90 421 124 24 11 46 20 48 20
2 0 1 -80 -2 -177z"/>
<path d="M9110 5634 c-14 -2 -59 -9 -100 -15 -140 -21 -305 -84 -420 -162
-329 -223 -499 -616 -500 -1157 0 -256 28 -445 96 -650 122 -367 378 -589 792
-686 149 -35 377 -44 523 -19 397 66 660 248 822 571 125 249 185 601 158 927
-21 255 -66 419 -167 618 -67 131 -129 214 -227 305 -156 143 -349 229 -592
264 -66 9 -330 12 -385 4z m295 -589 c89 -23 150 -62 221 -139 131 -141 183
-312 184 -602 0 -203 -30 -387 -84 -507 -83 -185 -256 -307 -435 -307 -87 1
-140 14 -230 57 -152 73 -228 199 -278 466 -13 69 -17 146 -17 312 0 195 2
229 22 300 50 183 145 320 257 371 135 63 248 78 360 49z"/>
<path d="M13095 5629 c-263 -34 -484 -134 -621 -282 -149 -161 -213 -326 -214
-548 0 -348 185 -558 620 -702 141 -47 347 -101 502 -132 340 -67 486 -182
422 -333 -48 -115 -191 -176 -414 -175 -191 2 -313 39 -407 126 -60 55 -91
118 -108 220 l-6 37 -336 0 -336 0 6 -107 c22 -396 254 -661 662 -758 164 -39
273 -48 522 -42 324 7 492 41 693 139 92 46 116 63 200 147 158 159 217 299
227 542 10 232 -38 374 -171 505 -61 60 -92 81 -197 132 -169 83 -388 154
-584 190 -127 23 -375 96 -453 133 -133 61 -170 108 -158 193 19 127 137 186
368 186 178 0 298 -44 374 -136 92 -110 127 -143 177 -165 50 -23 64 -24 306
-27 l254 -3 -6 78 c-16 200 -107 384 -260 530 -138 131 -373 224 -635 252
-119 13 -326 12 -427 0z"/>
<path d="M15850 5634 c-14 -2 -59 -9 -100 -15 -214 -31 -422 -137 -573 -292
-163 -165 -250 -345 -314 -642 -26 -123 -27 -144 -27 -385 0 -271 6 -329 60
-545 83 -333 254 -552 538 -690 300 -146 632 -174 981 -84 103 27 263 103 341
162 77 59 188 175 237 250 99 149 182 374 212 572 81 547 -45 1061 -334 1358
-165 170 -371 269 -635 306 -71 10 -328 13 -386 5z m282 -585 c177 -37 329
-207 389 -434 16 -61 22 -122 26 -260 6 -204 -10 -350 -53 -486 -28 -87 -101
-206 -163 -262 -147 -133 -341 -154 -537 -57 -198 97 -287 335 -288 770 -1
181 2 216 22 295 48 191 141 328 259 382 127 59 235 75 345 52z"/>
<path d="M23352 5629 c-256 -30 -457 -123 -608 -280 -109 -114 -182 -257 -200
-388 l-7 -51 331 0 331 0 15 28 c17 31 71 84 104 101 91 47 302 65 438 37 115
-23 147 -34 185 -59 40 -26 79 -98 79 -144 0 -133 -137 -216 -425 -257 -412
-59 -530 -87 -692 -161 -179 -82 -289 -178 -353 -308 -66 -135 -75 -184 -74
-402 0 -161 4 -202 21 -266 60 -215 171 -344 388 -450 149 -72 234 -90 450
-96 324 -9 587 29 778 112 121 52 183 93 272 180 160 156 236 307 270 535 12
74 15 221 15 674 0 642 0 647 -65 776 -121 241 -381 379 -794 420 -120 12
-353 11 -459 -1z m675 -1554 c-4 -139 -9 -183 -27 -240 -76 -240 -266 -368
-545 -368 -174 0 -252 38 -307 150 -29 60 -33 76 -32 148 1 96 29 178 77 227
44 43 155 94 262 119 268 62 409 100 485 131 70 27 86 31 89 18 2 -8 1 -91 -2
-185z"/>
<path d="M28690 5625 c-185 -27 -317 -75 -444 -159 -180 -120 -309 -313 -341
-513 l-7 -43 334 0 333 1 27 44 c34 56 108 99 207 121 145 33 421 1 508 -58
46 -33 73 -86 73 -147 0 -147 -128 -213 -525 -271 -326 -47 -459 -82 -617
-161 -267 -134 -369 -281 -400 -572 -20 -197 8 -389 80 -537 91 -186 324 -339
589 -385 100 -18 344 -20 513 -5 233 21 364 56 535 143 87 44 113 64 205 156
139 141 196 239 240 419 34 136 40 258 40 789 -1 595 -4 627 -71 763 -32 65
-60 102 -118 160 -127 126 -286 198 -527 241 -157 27 -495 35 -634 14z m698
-1575 c-4 -138 -8 -175 -27 -230 -78 -226 -270 -352 -536 -354 -167 -1 -257
42 -313 148 -24 46 -27 62 -27 151 0 91 3 105 30 160 54 108 135 149 428 215
172 38 358 94 415 124 27 14 27 14 30 -17 2 -18 2 -106 0 -197z"/>
<path d="M1111 5564 c-468 -64 -788 -270 -965 -621 -129 -257 -148 -447 -144
-1378 l3 -590 348 -3 347 -2 0 725 c0 786 1 810 55 931 31 70 110 153 177 187
95 48 159 59 361 64 l187 5 0 349 0 349 -132 -1 c-73 -1 -180 -7 -237 -15z"/>
<path d="M7160 4276 l0 -1306 345 0 345 0 -2 1183 -3 1182 -25 50 c-31 64
-107 140 -168 168 -43 20 -66 22 -269 25 l-223 3 0 -1305z"/>
<path d="M18762 4278 l3 -1303 345 0 345 0 0 1175 0 1175 -27 57 c-31 68 -99
137 -165 170 -45 22 -61 23 -276 26 l-227 3 2 -1303z"/>
<path d="M26149 5565 c-617 -84 -973 -403 -1085 -971 -16 -79 -18 -174 -21
-856 l-4 -768 346 0 345 0 0 718 c1 800 2 822 64 948 43 86 103 144 191 186
89 41 193 57 373 58 l152 0 0 350 0 350 -132 -1 c-73 -1 -176 -7 -229 -14z"/>
<path d="M26902 4278 l3 -1303 345 0 345 0 0 1175 0 1175 -26 55 c-31 67 -101
139 -166 171 -46 23 -59 24 -276 27 l-227 3 2 -1303z"/>
</g>
</svg>
