<?xml version="1.0" standalone="no"?>
<!DOCTYPE svg PUBLIC "-//W3C//DTD SVG 20010904//EN"
 "http://www.w3.org/TR/2001/REC-SVG-20010904/DTD/svg10.dtd">
<svg version="1.0" xmlns="http://www.w3.org/2000/svg"
 width="2805.000000pt" height="2805.000000pt" viewBox="0 0 2805.000000 2805.000000"
 preserveAspectRatio="xMidYMid meet">
<metadata>
Created by potrace 1.14, written by Peter Selinger 2001-2017
</metadata>
<g transform="translate(0.000000,2805.000000) scale(0.100000,-0.100000)"
fill="#000000" stroke="none">
<path d="M13881 26548 c-26 -150 -94 -635 -131 -926 -113 -902 -180 -1728
-231 -2842 -13 -299 -22 -1875 -12 -2120 l8 -184 185 -114 c886 -547 1838
-1265 2581 -1949 l27 -25 67 21 c93 29 237 29 331 0 131 -39 260 -121 391
-245 49 -47 466 -649 2035 -2939 1086 -1584 1999 -2916 2028 -2960 168 -253
388 -468 638 -624 l83 -52 63 133 c91 192 192 369 321 563 194 290 403 541
675 810 l142 140 -7 55 c-24 202 -114 613 -195 899 -256 899 -600 1613 -1484
3079 -1755 2913 -4019 5822 -6520 8381 -303 311 -965 961 -977 961 -4 0 -12
-28 -18 -62z"/>
<path d="M9605 25183 c23 -1029 76 -1803 196 -2818 11 -93 22 -180 24 -191 4
-18 41 -34 232 -99 1058 -359 2129 -840 3098 -1391 77 -43 142 -80 145 -81 3
-2 5 405 5 905 0 552 5 1017 13 1187 7 154 15 343 18 421 l7 140 -369 246
c-876 584 -1681 1070 -2554 1543 -294 159 -793 415 -809 415 -10 0 -11 -59 -6
-277z"/>
<path d="M5336 22759 c86 -295 280 -883 407 -1229 1073 -2935 2735 -5868 4726
-8340 630 -783 1355 -1593 1994 -2229 l175 -173 1613 -459 c1878 -534 1784
-508 1874 -516 58 -5 73 -3 84 11 12 14 10 22 -12 55 -15 22 -57 64 -94 94
-37 30 -945 688 -2018 1463 -2099 1516 -2071 1495 -2162 1649 -77 130 -105
261 -84 394 24 152 72 242 197 366 83 81 153 126 256 163 63 22 89 26 188 25
128 0 229 -24 364 -87 39 -18 946 -581 2016 -1251 1070 -670 1995 -1246 2055
-1281 174 -100 295 -137 303 -94 7 37 -115 185 -449 550 -128 140 -930 1014
-1781 1942 -851 928 -1570 1715 -1598 1750 -141 174 -190 387 -134 579 25 85
98 217 168 304 218 273 462 403 692 367 89 -14 196 -57 276 -110 32 -21 574
-540 1215 -1163 1034 -1004 1959 -1903 2403 -2333 235 -228 435 -388 541 -433
71 -30 63 44 -25 223 -98 202 -139 272 -1396 2364 -1160 1932 -1186 1977
-1217 2080 -46 150 -56 211 -56 330 0 191 47 305 179 437 l83 83 -142 126
c-2194 1959 -4905 3336 -7902 4013 -872 197 -1891 344 -2607 377 l-148 7 16
-54z"/>
<path d="M27880 17279 c-938 -67 -2007 -443 -2975 -1047 -609 -380 -1162 -823
-1735 -1388 l-215 -212 11 -39 c6 -21 35 -114 63 -208 85 -275 193 -730 217
-911 3 -28 10 -57 14 -64 6 -9 53 24 163 111 171 137 454 345 590 434 112 72
307 166 417 199 147 44 260 59 405 53 205 -8 376 -61 566 -174 157 -93 203
-151 203 -258 0 -95 -28 -140 -206 -332 -366 -393 -617 -736 -850 -1161 -248
-452 -435 -970 -537 -1487 -41 -210 -49 -273 -61 -500 -28 -519 -122 -1042
-259 -1447 -16 -49 -27 -88 -23 -88 9 1 87 112 337 485 1218 1810 2443 4140
3500 6660 227 541 545 1342 545 1372 0 14 2 14 -170 2z"/>
<path d="M4810 17094 c-704 -21 -1151 -42 -1620 -74 -421 -29 -578 -43 -591
-51 -8 -5 23 -59 97 -165 587 -861 1365 -1819 2188 -2699 91 -97 166 -169 175
-168 9 1 131 29 271 62 1276 299 2463 472 3654 531 116 6 211 12 212 13 1 1
-36 56 -83 122 -396 559 -1035 1566 -1414 2227 -84 147 -84 147 -124 152 -39
5 -245 16 -725 37 -222 10 -1813 20 -2040 13z"/>
<path d="M8930 14329 c-2315 -122 -4872 -729 -7434 -1763 -594 -240 -1496
-640 -1496 -664 0 -4 109 -80 243 -168 1449 -965 3339 -1931 5387 -2752 3735
-1498 7975 -2526 12435 -3017 226 -24 422 -46 438 -48 15 -2 27 -1 27 3 0 11
-1936 2121 -2024 2205 -47 46 -115 98 -157 122 -44 24 -814 328 -1869 738
-987 383 -1827 710 -1867 727 -204 84 -379 260 -457 458 -58 148 -88 343 -67
442 24 115 84 210 151 238 17 7 30 15 30 18 0 3 -87 93 -193 201 -528 538
-1161 1252 -1708 1926 -273 337 -760 972 -959 1253 l-65 91 -135 -1 c-74 0
-200 -4 -280 -9z"/>
<path d="M11590 4434 l0 -566 -42 54 c-141 179 -311 283 -523 323 -134 26
-349 17 -468 -19 -388 -116 -669 -462 -767 -944 -48 -237 -52 -586 -10 -832
58 -337 203 -614 405 -776 122 -97 351 -183 568 -213 221 -31 521 -4 742 66
138 43 349 147 440 215 186 141 301 367 340 667 13 98 15 284 13 1226 l-3
1110 -24 50 c-37 75 -124 157 -194 183 -52 20 -77 22 -267 22 l-210 0 0 -566z
m-421 -811 c135 -37 256 -131 317 -248 74 -139 104 -292 104 -523 0 -507 -171
-775 -516 -807 -88 -8 -211 13 -290 51 -128 60 -235 203 -288 386 -65 225 -61
561 8 766 61 179 183 316 326 367 93 34 234 37 339 8z"/>
<path d="M7970 3246 l0 -1746 360 0 360 0 -2 1618 -3 1617 -26 56 c-33 69 -91
129 -161 166 l-53 28 -237 3 -238 3 0 -1745z"/>
<path d="M8970 4711 l0 -281 360 0 360 0 0 103 c0 186 -25 269 -105 351 -24
25 -67 57 -96 73 l-54 28 -232 3 -233 3 0 -280z"/>
<path d="M16690 4710 l0 -280 361 0 361 0 -4 148 c-3 143 -4 149 -36 214 -40
81 -111 149 -188 177 -49 19 -77 21 -274 21 l-220 0 0 -280z"/>
<path d="M21310 3455 c0 -1696 -3 -1626 63 -1748 59 -111 157 -175 305 -198
79 -12 687 -25 726 -15 l26 6 0 264 0 264 -142 4 c-162 4 -206 18 -245 77
l-23 34 0 778 0 779 70 0 c130 0 242 67 305 182 28 49 30 61 33 181 l4 127
-205 0 -206 0 -3 268 -3 268 -33 66 c-39 81 -113 149 -190 178 -47 18 -78 20
-267 20 l-215 0 0 -1535z"/>
<path d="M6390 4263 c-290 -19 -509 -95 -692 -242 -236 -188 -367 -441 -434
-836 -22 -124 -25 -467 -6 -600 17 -121 58 -300 89 -394 134 -401 449 -648
928 -726 305 -50 693 22 917 171 289 192 468 513 524 938 23 173 15 530 -16
670 -63 294 -188 543 -352 707 -155 153 -361 254 -598 292 -102 17 -271 26
-360 20z m225 -618 c107 -28 174 -74 261 -182 109 -133 154 -306 155 -587 0
-414 -99 -659 -322 -794 -82 -50 -232 -66 -343 -37 -285 74 -406 303 -423 801
-9 270 31 452 133 605 68 103 143 152 299 194 68 18 168 18 240 0z"/>
<path d="M3585 4245 c-284 -46 -508 -161 -645 -332 -128 -159 -181 -313 -181
-528 0 -341 171 -549 576 -700 126 -47 421 -128 567 -155 382 -72 539 -201
453 -370 -62 -120 -287 -190 -522 -161 -276 34 -400 137 -438 364 l-6 37 -347
-2 -347 -3 3 -80 c14 -458 282 -746 782 -840 115 -22 503 -31 653 -16 452 48
737 211 878 506 114 238 113 549 -2 751 -66 116 -169 200 -348 281 -113 51
-371 137 -462 153 -96 18 -384 89 -467 116 -150 49 -253 119 -265 180 -10 51
12 123 50 165 45 50 118 77 244 90 222 22 393 -30 490 -151 77 -97 114 -131
168 -157 l56 -28 264 -3 264 -3 -6 78 c-17 216 -132 439 -296 578 -115 97
-319 184 -516 221 -126 23 -479 28 -600 9z"/>
<path d="M13320 4245 c-180 -30 -358 -98 -470 -180 -72 -53 -183 -175 -228
-251 -44 -74 -86 -190 -97 -266 l-7 -48 340 0 341 0 28 42 c60 88 145 130 300
148 149 17 371 -20 455 -75 90 -59 103 -198 26 -276 -39 -39 -127 -83 -209
-104 -67 -18 -306 -58 -445 -75 -116 -14 -298 -62 -401 -106 -219 -92 -349
-198 -421 -342 -63 -127 -77 -204 -76 -422 1 -207 15 -283 77 -415 86 -181
274 -320 530 -391 78 -22 119 -27 275 -31 547 -16 903 89 1130 331 119 127
186 250 228 412 39 157 46 295 42 889 -5 609 -3 590 -74 734 -24 48 -61 99
-107 147 -135 143 -302 221 -582 271 -118 21 -546 26 -655 8z m736 -1782 c-27
-154 -111 -289 -227 -363 -208 -134 -546 -127 -649 13 -82 111 -80 312 4 422
53 69 156 112 396 166 180 40 364 94 441 128 l44 20 3 -151 c2 -99 -2 -180
-12 -235z"/>
<path d="M18346 4244 c-324 -50 -569 -203 -706 -439 -33 -57 -87 -213 -92
-265 l-3 -35 341 -3 341 -2 31 49 c87 141 371 186 659 105 110 -31 156 -83
161 -182 3 -58 0 -72 -20 -102 -34 -50 -108 -96 -202 -125 -72 -23 -133 -34
-406 -75 -326 -49 -502 -108 -682 -226 -83 -55 -170 -148 -207 -222 -121 -239
-118 -629 7 -866 104 -198 348 -350 635 -396 98 -16 475 -7 630 14 525 73 851
382 916 869 7 48 11 312 11 671 0 668 0 672 -77 819 -46 89 -161 206 -253 260
-134 77 -327 134 -532 156 -134 15 -444 12 -552 -5z m743 -1601 c-5 -174 -10
-217 -26 -264 -47 -127 -107 -210 -201 -273 -201 -136 -534 -138 -647 -4 -53
62 -69 114 -69 213 0 106 27 186 77 237 42 41 172 102 267 123 236 53 435 107
510 138 47 19 87 35 90 36 3 0 2 -92 -1 -206z"/>
<path d="M8970 2851 l0 -1351 360 0 360 0 0 1173 c0 701 -4 1196 -10 1231 -18
114 -87 208 -191 263 l-54 28 -232 3 -233 3 0 -1350z"/>
<path d="M16085 4184 c-660 -90 -1044 -456 -1135 -1084 -9 -59 -14 -315 -17
-842 l-4 -758 360 0 360 0 3 768 c4 749 4 769 25 844 29 102 55 151 116 215
100 106 227 143 497 143 l170 0 0 365 0 365 -137 -1 c-76 -1 -183 -7 -238 -15z"/>
<path d="M16690 2851 l0 -1351 360 0 360 0 -2 1218 -3 1217 -33 67 c-37 75
-100 138 -172 172 -41 19 -66 21 -277 24 l-233 3 0 -1350z"/>
<path d="M22590 4196 c0 -3 233 -670 692 -1981 121 -346 227 -649 235 -673
l15 -42 365 2 365 3 75 210 c419 1186 867 2454 871 2468 4 17 -11 18 -314 15
l-319 -3 -51 -27 c-60 -32 -118 -93 -147 -157 -12 -25 -128 -414 -257 -863
-129 -449 -238 -814 -241 -810 -3 4 -117 401 -253 882 -136 481 -254 899 -262
928 l-15 52 -380 0 c-208 0 -379 -2 -379 -4z"/>
</g>
</svg>
